<svg xmlns="http://www.w3.org/2000/svg" xmlns:xlink="http://www.w3.org/1999/xlink" viewBox="0 0 1297.37 1297.37"><defs><style>.cls-1{fill:none;}.cls-2{fill:url(#linear-gradient);}.cls-3{fill:#fff;}.cls-4{fill:url(#linear-gradient-2);}.cls-5{fill:url(#linear-gradient-3);}.cls-6{fill:url(#linear-gradient-4);}</style><linearGradient id="linear-gradient" x1="998.03" y1="497.48" x2="387.13" y2="851.5" gradientUnits="userSpaceOnUse"><stop offset="0" stop-color="#794acf"/><stop offset="1" stop-color="#5623aa"/></linearGradient><linearGradient id="linear-gradient-2" x1="913.81" y1="352.11" x2="302.88" y2="706.15" xlink:href="#linear-gradient"/><linearGradient id="linear-gradient-3" x1="989.71" y1="483.23" x2="378.94" y2="837.18" xlink:href="#linear-gradient"/><linearGradient id="linear-gradient-4" x1="951.79" y1="417.64" x2="340.86" y2="771.68" xlink:href="#linear-gradient"/></defs><g id="Layer_2" data-name="Layer 2"><g id="layers"><rect class="cls-1" width="1297.37" height="1297.37" rx="40.86"/><path class="cls-2" d="M1161.21,342.39a78.89,78.89,0,0,0-39.27-68L688,23.87a78.82,78.82,0,0,0-78.51,0L175.37,274.48a79,79,0,0,0-39.22,68v501.2a78.86,78.86,0,0,0,39.28,68l650.06,375.21a16.72,16.72,0,0,0,25.68-14.14V1068h0L1122,911.57a78.85,78.85,0,0,0,39.22-68Z"/><path class="cls-3" d="M338.5,441.35a47.64,47.64,0,0,1,23.75-41.13L624.92,248.56a47.79,47.79,0,0,1,47.54,0L935.18,400.24a47.73,47.73,0,0,1,23.73,41.15V744.75a47.76,47.76,0,0,1-23.75,41.13L541.68,1013a10.1,10.1,0,0,1-15.53-8.55V880.51h0L362.21,785.86a47.86,47.86,0,0,1-23.75-41.17Z"/><path class="cls-4" d="M497.6,550.12a43.17,43.17,0,1,0,43.26,43.07A43.05,43.05,0,0,0,497.6,550.12Z"/><path class="cls-5" d="M799.87,636.45a43.17,43.17,0,1,0-43.31-43.26A43.27,43.27,0,0,0,799.87,636.45Z"/><path class="cls-6" d="M605.72,593.19a43.15,43.15,0,1,0,42.8-43.07A43,43,0,0,0,605.72,593.19Z"/></g></g></svg>